<svg width="778" height="281" viewBox="0 0 778 281" fill="none" xmlns="http://www.w3.org/2000/svg">
<path d="M20.9602 231.986V58.8946H79.446C92.9688 58.8946 104.069 61.2047 112.746 65.825C121.423 70.3889 127.846 76.6714 132.016 84.6723C136.185 92.6733 138.27 101.773 138.27 111.971C138.27 122.17 136.185 131.213 132.016 139.101C127.846 146.99 121.451 153.187 112.83 157.695C104.21 162.146 93.1941 164.372 79.7841 164.372H32.4545V145.44H79.108C88.3485 145.44 95.786 144.088 101.42 141.383C107.111 138.679 111.224 134.847 113.76 129.889C116.352 124.874 117.648 118.902 117.648 111.971C117.648 105.041 116.352 98.9839 113.76 93.8001C111.168 88.6164 107.027 84.616 101.336 81.7987C95.6451 78.9251 88.1231 77.4884 78.7699 77.4884H41.9205V231.986H20.9602ZM102.435 154.23L145.031 231.986H120.69L78.7699 154.23H102.435ZM223.526 234.69C211.018 234.69 200.228 231.929 191.156 226.407C182.141 220.829 175.183 213.054 170.281 203.081C165.435 193.051 163.012 181.388 163.012 168.091C163.012 154.793 165.435 143.074 170.281 132.932C175.183 122.733 182 114.789 190.734 109.098C199.524 103.351 209.778 100.477 221.498 100.477C228.259 100.477 234.936 101.604 241.529 103.858C248.121 106.111 254.122 109.774 259.531 114.845C264.94 119.86 269.25 126.508 272.462 134.791C275.673 143.074 277.279 153.272 277.279 165.386V173.838H177.211V156.596H256.995C256.995 149.272 255.53 142.736 252.6 136.988C249.727 131.241 245.614 126.705 240.261 123.381C234.964 120.057 228.71 118.395 221.498 118.395C213.553 118.395 206.679 120.367 200.876 124.311C195.129 128.199 190.706 133.27 187.607 139.524C184.508 145.778 182.958 152.483 182.958 159.639V171.133C182.958 180.937 184.649 189.248 188.029 196.066C191.466 202.827 196.227 207.983 202.313 211.532C208.398 215.026 215.469 216.772 223.526 216.772C228.767 216.772 233.499 216.04 237.725 214.575C242.008 213.054 245.698 210.8 248.797 207.814C251.896 204.771 254.291 200.996 255.981 196.488L275.251 201.897C273.222 208.433 269.814 214.181 265.024 219.139C260.235 224.041 254.319 227.872 247.276 230.633C240.233 233.338 232.316 234.69 223.526 234.69Z" fill="#AB0000"/>
<path d="M469.877 231.5V101.682H489.824V231.5H469.877ZM480.02 80.0455C476.132 80.0455 472.779 78.7214 469.962 76.0731C467.201 73.425 465.821 70.2415 465.821 66.5227C465.821 62.804 467.201 59.6205 469.962 56.9723C472.779 54.3241 476.132 53 480.02 53C483.907 53 487.232 54.3241 489.993 56.9723C492.81 59.6205 494.218 62.804 494.218 66.5227C494.218 70.2415 492.81 73.425 489.993 76.0731C487.232 78.7214 483.907 80.0455 480.02 80.0455ZM546.302 153.406V231.5H526.356V101.682H545.626V121.966H547.316C550.359 115.374 554.979 110.077 561.177 106.077C567.375 102.02 575.376 99.9915 585.18 99.9915C593.97 99.9915 601.661 101.795 608.253 105.401C614.845 108.95 619.973 114.359 623.635 121.628C627.298 128.84 629.129 137.968 629.129 149.011V231.5H609.183V150.364C609.183 140.165 606.535 132.221 601.238 126.53C595.942 120.783 588.673 117.909 579.433 117.909C573.066 117.909 567.375 119.29 562.36 122.05C557.402 124.811 553.486 128.84 550.612 134.136C547.739 139.433 546.302 145.856 546.302 153.406ZM684.17 184.17L683.832 159.491H687.889L744.685 101.682H769.364L708.849 162.872H707.159L684.17 184.17ZM665.577 231.5V58.4091H685.523V231.5H665.577ZM748.065 231.5L697.355 167.267L711.554 153.406L773.42 231.5H748.065Z" fill="#D9D9D9"/>
<line x1="310.5" y1="55.3636" x2="310.5" y2="225.295" stroke="#000500" stroke-width="17"/>
<line x1="302" y1="216.795" x2="419" y2="216.795" stroke="#000500" stroke-width="17"/>
<line x1="343.122" y1="16.9857" x2="343.122" y2="186.917" stroke="#000500" stroke-width="17"/>
<line x1="334.622" y1="178.417" x2="451.622" y2="178.417" stroke="#000500" stroke-width="17"/>
</svg>
